# xmcd
#
# Track frame offsets: 
#        150
#        12943
#        30139
#        47609
#        63069
#        84178
#        101250
#        116370
#        130193
#        147526
#        163331
#        179527
#
# Disc length: 2618 seconds
#
# Revision: 3
# Processed by: cddbd v1.5.2PL0 Copyright (c) Steve Scherf et al.
# Submitted via: ExactAudioCopy v0.99pb5
#
DISCID=8e0a380c
DTITLE=Alan Jackson - Freight Train
DYEAR=2010
DGENRE=Country
TTITLE0=Hard Hat and a Hammer
TTITLE1=Every Now and Then
TTITLE2=After 17
TTITLE3=It's Just That Way
TTITLE4=Freight Train
TTITLE5=Taillights Blue
TTITLE6=I Could Get Used to This Lovin' Thing
TTITLE7=Till the End (with Lee Ann Womack)
TTITLE8=That's Where I Belong
TTITLE9=Big Green Eyes
TTITLE10=True Love Is a Golden Ring
TTITLE11=The Best Keeps Getting Better
EXTD=YEAR: 2010
EXTT0=
EXTT1=
EXTT2=
EXTT3=
EXTT4=
EXTT5=
EXTT6=
EXTT7=
EXTT8=
EXTT9=
EXTT10=
EXTT11=
PLAYORDER=
